<svg width="24" height="24" viewBox="0 0 24 24" fill="none" xmlns="http://www.w3.org/2000/svg">
<path d="M10.9998 5.00061C10.9998 4.73539 11.1051 4.48104 11.2927 4.2935C11.4802 4.10597 11.7346 4.00061 11.9998 4.00061C12.265 4.00061 12.5193 4.10597 12.7069 4.2935C12.8944 4.48104 12.9998 4.73539 12.9998 5.00061V12.1586L16.2428 8.91561L17.6568 10.3296L11.9998 15.9866L6.34277 10.3306L7.75677 8.91661L10.9998 12.1586V5.00061Z" fill="#D04A02"/>
<path d="M4 14.0012H6V18.0012H18V14.0012H20V18.0012C20 18.5317 19.7893 19.0404 19.4142 19.4154C19.0391 19.7905 18.5304 20.0012 18 20.0012H6C5.46957 20.0012 4.96086 19.7905 4.58579 19.4154C4.21071 19.0404 4 18.5317 4 18.0012V14.0012Z" fill="#D04A02"/>
</svg>
