<svg width="56" height="56" viewBox="0 0 56 56" fill="none" xmlns="http://www.w3.org/2000/svg">
<path d="M52.5 33.25H45.5V26.25H42V42H14V14H29.75V10.5H22.75V3.5H19.25V10.5H14C13.072 10.5009 12.1823 10.87 11.5261 11.5261C10.87 12.1823 10.5009 13.072 10.5 14V19.25H3.5V22.75H10.5V33.25H3.5V36.75H10.5V42C10.5009 42.928 10.87 43.8177 11.5261 44.4739C12.1823 45.13 13.072 45.4991 14 45.5H19.25V52.5H22.75V45.5H33.25V52.5H36.75V45.5H42C42.9278 45.4986 43.8173 45.1294 44.4733 44.4733C45.1294 43.8173 45.4986 42.9278 45.5 42V36.75H52.5V33.25Z" fill="#D04A02"/>
<path d="M36.75 36.75H19.25V19.25H36.75V36.75ZM22.75 33.25H33.25V22.75H22.75V33.25Z" fill="#D04A02"/>
<path d="M54.25 22.75H50.75C50.7444 18.1104 48.8989 13.6625 45.6182 10.3818C42.3375 7.10109 37.8896 5.25556 33.25 5.25V1.75C38.8177 1.75602 44.1556 3.97045 48.0926 7.90741C52.0296 11.8444 54.244 17.1823 54.25 22.75V22.75Z" fill="#D04A02"/>
<path d="M45.5 22.75H42C41.9972 20.4302 41.0745 18.2062 39.4341 16.5659C37.7938 14.9255 35.5698 14.0028 33.25 14V10.5C36.4978 10.5037 39.6114 11.7955 41.908 14.092C44.2045 16.3886 45.4963 19.5022 45.5 22.75Z" fill="#D04A02"/>
</svg>
