<?xml version="1.0" standalone="no"?>
<!DOCTYPE svg PUBLIC "-//W3C//DTD SVG 20010904//EN"
 "http://www.w3.org/TR/2001/REC-SVG-20010904/DTD/svg10.dtd">
<svg version="1.0" xmlns="http://www.w3.org/2000/svg"
 width="278.000000pt" height="93.000000pt" viewBox="0 0 278.000000 93.000000"
 preserveAspectRatio="xMidYMid meet">
<metadata>
Created by potrace 1.16, written by Peter Selinger 2001-2019
</metadata>
<g transform="translate(0.000000,93.000000) scale(0.100000,-0.100000)"
fill="#000000" stroke="none">
<path d="M25 898 c-3 -7 -4 -206 -3 -443 l3 -430 419 -3 c231 -1 423 1 427 5
4 5 9 204 11 443 l3 435 -428 3 c-337 2 -429 0 -432 -10z m125 -38 c-19 -4
116 -8 300 -8 184 0 324 4 310 8 -20 6 -13 8 28 9 39 1 52 -2 49 -11 -2 -7 -8
-12 -13 -11 -13 2 -7 -321 5 -325 11 -4 15 -32 5 -32 -11 0 -42 45 -34 50 4 3
-9 21 -28 40 -19 19 -30 28 -24 19 7 -9 9 -18 7 -21 -8 -7 -71 53 -67 64 2 9
-86 68 -102 68 -6 -1 6 -10 27 -21 22 -11 37 -23 34 -25 -7 -8 -87 37 -82 46
8 13 -71 28 -130 24 -76 -4 -119 -19 -192 -66 -62 -40 -84 -60 -40 -37 12 7
-12 -20 -53 -59 -41 -40 -79 -72 -85 -72 -5 1 -3 6 5 13 12 10 14 37 12 150
-2 77 -7 137 -13 137 -10 0 -13 53 -2 63 3 4 31 6 62 6 51 -2 53 -2 21 -9z
m451 -229 c17 -11 37 -18 43 -17 6 2 7 1 3 -2 -10 -5 22 -42 37 -42 14 0 96
-91 96 -106 0 -15 -138 -144 -154 -144 -6 0 -4 -5 4 -11 12 -9 12 -10 -4 -5
-10 4 -25 1 -33 -5 -27 -23 -23 -1 5 28 48 48 66 183 31 233 -8 11 -9 9 -4
-10 l6 -25 -15 25 c-19 31 -20 43 -3 35 6 -4 -6 10 -27 29 -43 39 -35 47 15
17z m-270 -5 c5 3 9 0 9 -6 0 -7 -7 -10 -15 -7 -18 7 -46 -33 -65 -90 -20 -64
5 -178 36 -166 8 3 14 0 14 -6 0 -6 -5 -11 -11 -11 -5 0 2 -11 16 -24 21 -20
23 -25 9 -30 -8 -3 -23 -1 -32 5 -14 9 -14 10 6 6 32 -7 27 -2 -20 23 -24 12
-63 40 -87 63 -25 23 -39 34 -32 25 22 -30 5 -20 -33 18 -35 35 -43 62 -17 56
6 -1 15 8 20 20 11 29 68 82 58 55 -5 -14 2 -12 31 10 20 15 39 30 42 34 17
18 55 38 58 29 2 -6 8 -8 13 -4z m-162 -309 c38 -34 59 -46 72 -42 11 4 19 2
19 -5 0 -6 -4 -8 -10 -5 -5 3 -10 4 -10 0 0 -3 26 -17 58 -32 49 -24 70 -27
152 -27 85 0 102 3 161 31 37 17 69 36 73 42 5 7 1 9 -8 5 -25 -9 -19 2 11 21
25 17 26 17 19 0 -3 -9 21 6 54 35 l60 52 0 -150 0 -150 -31 -6 c-40 -8 -672
-8 -693 0 -14 5 -16 29 -16 156 0 171 -9 163 89 75z"/>
<path d="M2262 500 c-24 -10 -22 -30 3 -30 19 0 31 -48 17 -70 -12 -20 -19
-91 -10 -106 4 -5 3 -16 -1 -23 -11 -18 -53 8 -47 29 3 8 6 31 8 50 3 31 -1
37 -31 52 -19 10 -37 15 -40 11 -4 -3 0 -8 7 -10 6 -3 12 -15 12 -28 0 -22
-30 -36 -80 -39 -16 -1 -21 -52 -8 -72 8 -11 218 -19 250 -8 10 3 18 12 18 19
0 9 -6 12 -15 9 -12 -5 -15 2 -15 29 0 20 5 39 10 42 6 3 10 21 10 38 0 25 -3
29 -11 17 -7 -11 -9 0 -7 40 2 52 1 55 -22 57 -14 1 -35 -2 -48 -7z"/>
<path d="M1627 493 c-12 -11 -8 -23 7 -23 20 0 26 -23 26 -102 0 -52 -4 -74
-17 -86 -16 -16 -16 -16 -10 1 11 29 -3 40 -25 21 -28 -26 -52 -7 -56 43 -2
30 1 42 13 47 13 4 15 1 10 -13 -6 -21 5 -32 39 -35 19 -2 22 2 20 28 -1 17 3
38 9 46 9 12 8 13 -2 4 -7 -7 -29 -10 -49 -7 -47 6 -92 -11 -99 -37 -3 -11
-14 -20 -25 -20 -14 0 -18 5 -13 19 10 33 -3 46 -43 44 -20 0 -46 -5 -56 -9
-13 -5 -17 -4 -12 4 4 7 -1 9 -16 6 -13 -3 -56 -5 -95 -6 -67 -1 -74 1 -93 25
-28 35 -88 51 -140 37 -47 -13 -68 -40 -75 -101 -8 -56 19 -104 64 -114 17 -4
31 -13 31 -20 0 -7 12 -23 27 -34 20 -17 34 -20 62 -15 47 9 51 12 44 30 -3 9
-12 12 -24 9 -32 -10 -35 22 -5 46 14 11 26 27 26 35 0 8 5 14 11 14 7 0 8 11
4 30 -4 19 -3 30 4 30 6 0 11 -12 12 -27 1 -43 9 -87 18 -95 8 -9 10 -9 169
-9 110 0 125 4 100 29 -18 18 -17 62 0 62 10 0 13 -8 10 -25 -3 -13 -1 -22 3
-19 5 3 9 -2 9 -10 0 -18 30 -36 62 -36 13 0 60 0 106 0 75 0 99 8 72 25 -5 3
-10 14 -10 23 0 11 7 5 20 -15 17 -28 25 -33 60 -33 45 0 49 8 19 36 -12 10
-28 31 -35 47 -15 27 -14 28 23 43 32 14 35 17 19 26 -10 5 -37 8 -62 6 l-44
-3 0 42 0 43 -43 0 c-24 0 -47 -3 -50 -7z"/>
<path d="M2361 390 c1 -16 3 -19 6 -7 10 38 23 14 23 -42 0 -38 5 -62 13 -65
6 -4 1 -4 -13 -2 -23 5 -24 4 -6 -9 24 -18 149 -18 173 1 17 12 16 13 -7 23
-14 5 -19 10 -12 10 6 1 13 15 13 34 2 32 2 32 6 3 7 -48 31 -74 76 -84 41 -8
65 -2 94 25 14 13 18 33 6 33 -5 0 -17 -7 -27 -15 -23 -17 -62 -20 -71 -5 -11
18 -13 84 -4 103 13 23 0 21 -28 -5 -22 -20 -23 -21 -24 -2 0 18 -1 18 -8 -1
-8 -19 -8 -19 -20 3 -9 17 -20 22 -54 22 -33 -1 -38 -3 -24 -11 9 -6 17 -22
17 -37 0 -21 -2 -24 -10 -12 -7 11 -10 7 -10 -17 0 -18 -4 -33 -10 -33 -5 0
-10 16 -10 36 0 21 -4 33 -10 29 -6 -3 -10 5 -10 18 0 21 -6 25 -35 29 -32 4
-35 2 -34 -22z"/>
</g>
</svg>
